<?xml version="1.0" encoding="UTF-8" standalone="no"?>
<!DOCTYPE svg PUBLIC "-//W3C//DTD SVG 1.1//EN" "http://www.w3.org/Graphics/SVG/1.1/DTD/svg11.dtd">
<svg width="100%" height="100%" viewBox="0 0 48 48" version="1.1" xmlns="http://www.w3.org/2000/svg" xmlns:xlink="http://www.w3.org/1999/xlink" xml:space="preserve" xmlns:serif="http://www.serif.com/" style="fill-rule:evenodd;clip-rule:evenodd;stroke-linejoin:round;stroke-miterlimit:2;">
    <g>
        <g transform="matrix(0.0319112,0,0,0.0319112,-4.3161,-9.11043)">
            <path d="M603.771,727.853C481.175,727.853 381.436,827.592 381.436,950.188C381.436,1072.79 481.175,1172.52 603.771,1172.52L780.02,1172.52L780.02,727.853L603.771,727.853ZM804.02,1220.52L603.771,1220.52C531.563,1220.52 463.675,1192.4 412.615,1141.34C361.556,1090.29 333.436,1022.4 333.436,950.189C333.436,877.979 361.556,810.092 412.615,759.033C463.675,707.973 531.563,679.853 603.771,679.853L804.02,679.853C817.275,679.853 828.02,690.598 828.02,703.853L828.02,1196.52C828.02,1209.78 817.275,1220.52 804.02,1220.52Z" style="fill:white;fill-rule:nonzero;"/>
        </g>
        <g transform="matrix(0.0319112,0,0,0.0319112,-4.3161,-9.11043)">
            <path d="M828.02,1179.72L1297.15,1351.37L1297.15,549.013L828.02,720.654L828.02,1179.72ZM1321.15,1409.7C1318.38,1409.7 1315.58,1409.22 1312.91,1408.24L795.774,1219.04C786.312,1215.58 780.02,1206.57 780.02,1196.5L780.02,703.879C780.02,693.805 786.312,684.802 795.774,681.341L1312.91,492.137C1320.27,489.443 1328.48,490.515 1334.9,495.004C1341.33,499.495 1345.15,506.838 1345.15,514.676L1345.15,1385.7C1345.15,1393.54 1341.33,1400.88 1334.9,1405.37C1330.82,1408.23 1326.01,1409.7 1321.15,1409.7Z" style="fill:white;fill-rule:nonzero;"/>
        </g>
        <g transform="matrix(0.0319112,0,0,0.0319112,-4.3161,-9.11043)">
            <path d="M1371.13,459.099C1356.81,459.099 1345.15,470.751 1345.15,485.074L1345.15,1415.3C1345.15,1429.63 1356.81,1441.28 1371.13,1441.28C1385.45,1441.28 1397.1,1429.63 1397.1,1415.3L1397.1,485.074C1397.1,470.751 1385.45,459.099 1371.13,459.099ZM1371.13,1489.28C1330.34,1489.28 1297.15,1456.09 1297.15,1415.3L1297.15,485.074C1297.15,444.284 1330.34,411.099 1371.13,411.099C1411.92,411.099 1445.1,444.284 1445.1,485.074L1445.1,1415.3C1445.1,1456.09 1411.92,1489.28 1371.13,1489.28Z" style="fill:white;fill-rule:nonzero;"/>
        </g>
        <g transform="matrix(0.0319112,0,0,0.0319112,-4.3161,-9.11043)">
            <path d="M1421.49,826.502L1421.52,826.502L1421.49,826.502ZM1421.53,826.502L1421.54,826.502L1421.53,826.502ZM1421.56,826.502L1421.57,826.502L1421.56,826.502ZM1421.59,826.502M1421.09,1073.88C1408.2,1073.88 1397.54,1063.64 1397.12,1050.66C1396.68,1037.41 1407.07,1026.32 1420.32,1025.89C1461.25,1024.55 1494.08,990.104 1493.52,949.103C1492.97,909.461 1460.36,876.027 1420.79,874.493C1420.71,874.491 1420.63,874.489 1420.54,874.486C1407.55,874.188 1397.1,863.559 1397.1,850.492C1397.1,837.237 1407.85,826.492 1421.1,826.492C1421.43,826.492 1421.75,826.499 1422.07,826.509C1422.17,826.512 1422.26,826.515 1422.36,826.519C1454.05,827.671 1483.81,840.91 1506.17,863.797C1528.52,886.674 1541.08,916.735 1541.51,948.44C1541.96,981.144 1529.77,1012.15 1507.18,1035.75C1484.67,1059.26 1454.38,1072.8 1421.89,1073.86C1421.62,1073.87 1421.36,1073.88 1421.09,1073.88Z" style="fill:white;fill-rule:nonzero;"/>
        </g>
        <g transform="matrix(0.0319112,0,0,0.0319112,-4.3161,-9.11043)">
            <path d="M380.682,1078.78L360.589,1078.78C326.242,1078.78 293.951,1065.4 269.664,1041.11C245.627,1017.08 232.252,985.125 232.003,951.145C231.754,917.064 245.029,884.784 269.383,860.251C294.127,835.326 326.958,821.599 361.829,821.599L380.682,821.599C393.937,821.599 404.682,832.344 404.682,845.599C404.682,858.854 393.937,869.599 380.682,869.599L361.829,869.599C339.845,869.599 319.112,878.289 303.449,894.068C288.174,909.455 279.847,929.601 280.002,950.794C280.158,972.086 288.54,992.108 303.604,1007.17C318.826,1022.39 339.063,1030.78 360.589,1030.78L380.682,1030.78C393.937,1030.78 404.682,1041.52 404.682,1054.78C404.682,1068.03 393.937,1078.78 380.682,1078.78Z" style="fill:white;fill-rule:nonzero;"/>
        </g>
        <g transform="matrix(0.0319112,0,0,0.0319112,-4.3161,-9.11043)">
            <path d="M596.205,1588.9C554.963,1588.9 521.409,1555.35 521.409,1514.11L521.409,1189.57C521.409,1176.32 532.155,1165.57 545.41,1165.57C558.665,1165.57 569.41,1176.32 569.41,1189.57L569.41,1514.11C569.41,1528.88 581.43,1540.9 596.205,1540.9C610.98,1540.9 623,1528.88 623,1514.11L623,1196.52C623,1183.27 633.745,1172.52 647,1172.52C660.255,1172.52 671,1183.27 671,1196.52L671,1514.11C671,1555.35 637.447,1588.9 596.205,1588.9Z" style="fill:white;fill-rule:nonzero;"/>
        </g>
    </g>
</svg>
