<?xml version="1.0" encoding="UTF-8" standalone="no"?>
<!DOCTYPE svg PUBLIC "-//W3C//DTD SVG 1.1//EN" "http://www.w3.org/Graphics/SVG/1.1/DTD/svg11.dtd">
<svg width="100%" height="100%" viewBox="0 0 48 48" version="1.1" xmlns="http://www.w3.org/2000/svg" xmlns:xlink="http://www.w3.org/1999/xlink" xml:space="preserve" xmlns:serif="http://www.serif.com/" style="fill-rule:evenodd;clip-rule:evenodd;stroke-linejoin:round;stroke-miterlimit:2;">
    <g>
        <g transform="matrix(0.0384645,0,0,0.0384645,-21.3743,-14.4984)">
            <path d="M786.55,699.575C786.55,667.4 812.725,641.224 844.901,641.224L974.288,641.224L974.288,685.394C974.288,719.584 1002.1,747.4 1036.29,747.4L1318.24,747.4C1352.43,747.4 1380.25,719.584 1380.25,685.394L1380.25,641.224L1514.02,641.224C1546.19,641.224 1572.37,667.4 1572.37,699.575L1572.37,1475.71C1572.37,1507.88 1546.19,1534.06 1514.02,1534.06L844.901,1534.06C812.725,1534.06 786.55,1507.88 786.55,1475.71L786.55,699.575ZM1010.84,685.394L1010.84,574.941C1010.84,560.914 1022.26,549.502 1036.29,549.502L1318.24,549.502C1332.28,549.502 1343.7,560.914 1343.7,574.941L1343.7,685.394C1343.7,699.43 1332.28,710.851 1318.24,710.851L1036.29,710.851C1022.26,710.851 1010.84,699.43 1010.84,685.394ZM1180.19,465.94C1209.85,465.94 1234.93,485.823 1242.85,512.953L1117.53,512.953C1125.45,485.823 1150.54,465.94 1180.19,465.94ZM844.901,1570.61L1514.02,1570.61C1566.35,1570.61 1608.92,1528.04 1608.92,1475.71L1608.92,699.575C1608.92,647.246 1566.35,604.674 1514.02,604.674L1380.25,604.674L1380.25,574.941C1380.25,540.76 1352.43,512.953 1318.24,512.953L1280.35,512.953C1271.71,465.496 1230.1,429.39 1180.19,429.39C1130.28,429.39 1088.67,465.496 1080.03,512.953L1036.29,512.953C1002.1,512.953 974.288,540.76 974.288,574.941L974.288,604.674L844.901,604.674C792.573,604.674 750,647.246 750,699.575L750,1475.71C750,1528.04 792.573,1570.61 844.901,1570.61Z" style="fill:white;fill-rule:nonzero;"/>
        </g>
        <g transform="matrix(0.0384645,0,0,0.0384645,-21.3743,-14.4984)">
            <rect x="935.387" y="928.059" width="489.613" height="73.291" style="fill:white;fill-rule:nonzero;"/>
        </g>
        <g transform="matrix(0.0384645,0,0,0.0384645,-21.3743,-14.4984)">
            <rect x="935.387" y="1080.51" width="489.613" height="73.3" style="fill:white;fill-rule:nonzero;"/>
        </g>
        <g transform="matrix(0.0384645,0,0,0.0384645,-21.3743,-14.4984)">
            <rect x="935.387" y="1232.97" width="340.093" height="73.29" style="fill:white;fill-rule:nonzero;"/>
        </g>
    </g>
</svg>
