<?xml version="1.0" encoding="UTF-8" standalone="no"?>
<!DOCTYPE svg PUBLIC "-//W3C//DTD SVG 1.1//EN" "http://www.w3.org/Graphics/SVG/1.1/DTD/svg11.dtd">
<svg width="100%" height="100%" viewBox="0 0 48 48" version="1.1" xmlns="http://www.w3.org/2000/svg" xmlns:xlink="http://www.w3.org/1999/xlink" xml:space="preserve" xmlns:serif="http://www.serif.com/" style="fill-rule:evenodd;clip-rule:evenodd;stroke-linejoin:round;stroke-miterlimit:2;">
    <g transform="matrix(0.0484366,0,0,0.0484366,-24.4688,-25.3047)">
        <path d="M602.442,834.878C602.442,842.337 602.441,848.215 602.442,854.094C602.448,900.315 602.459,946.537 602.46,992.759C602.463,1113.13 602.439,1233.5 602.477,1353.88C602.489,1389.84 617.256,1404.82 652.778,1404.82C883.72,1404.85 1114.66,1404.84 1345.6,1404.81C1383.45,1404.81 1397.96,1390.29 1397.96,1352.55C1397.99,1185.98 1398,1019.41 1397.97,852.847C1397.97,847.087 1397.48,841.327 1397.18,834.878L602.442,834.878ZM693.472,624.318C693.472,639.497 693.303,652.954 693.505,666.405C693.998,699.151 716.175,723.212 746.083,723.667C776.56,724.13 799.608,699.689 800.082,666.223C800.266,653.198 800.111,640.168 800.111,625.719L947.222,625.719C947.222,639.943 947.027,653.924 947.261,667.898C947.804,700.241 970.949,724.161 1000.97,723.656C1030.6,723.158 1052.46,699.812 1052.95,667.905C1053.16,654.318 1052.99,640.725 1052.99,625.688L1200.09,625.688C1200.09,639.401 1199.9,652.842 1200.13,666.275C1200.7,699.627 1224.04,724.223 1254.29,723.604C1284.49,722.986 1306.36,699.153 1306.69,666.336C1306.83,652.896 1306.71,639.455 1306.71,623.336C1330.39,624.497 1352.31,623.469 1373.44,627.086C1407.56,632.928 1431.39,664.14 1431.51,700.175C1431.79,785.133 1431.63,870.092 1431.64,955.051C1431.64,1087.87 1431.64,1220.69 1431.62,1353.52C1431.62,1408.95 1402.47,1438.85 1347.4,1438.88C1115.39,1439.04 883.382,1439.03 651.371,1438.91C598.799,1438.88 568.708,1408.12 568.617,1355.25C568.389,1222.93 568.041,1090.61 568.001,958.289C567.976,873.361 568.343,788.432 568.671,703.504C568.848,657.763 598.874,626.376 644.554,624.425C660.185,623.757 675.867,624.318 693.472,624.318Z" style="fill:white;fill-rule:nonzero;"/>
    </g>
    <g transform="matrix(0.0484366,0,0,0.0484366,-24.4688,-25.3047)">
        <path d="M719.591,629.022C719.598,615.975 719.278,602.918 719.675,589.882C720.239,571.372 731.158,559.993 747.368,560.312C762.892,560.618 773.578,571.856 773.828,589.359C774.201,615.449 774.206,641.551 773.845,667.641C773.597,685.597 761.775,697.953 746.241,697.604C731.229,697.266 720.272,685.475 719.674,668.162C719.223,655.13 719.584,642.07 719.591,629.022Z" style="fill:white;fill-rule:nonzero;"/>
    </g>
    <g transform="matrix(0.0484366,0,0,0.0484366,-24.4688,-25.3047)">
        <path d="M1226.38,629.263C1226.39,615.669 1225.99,602.06 1226.5,588.485C1227.14,571.071 1238.08,560.195 1253.83,560.37C1269.57,560.545 1280.25,571.457 1280.54,589.116C1280.98,615.752 1281,642.409 1280.51,669.044C1280.2,685.953 1268.27,697.762 1253.21,697.542C1238.11,697.323 1227.01,685.571 1226.45,668.411C1226.03,655.374 1226.37,642.313 1226.38,629.263Z" style="fill:white;fill-rule:nonzero;"/>
    </g>
    <g transform="matrix(0.0484366,0,0,0.0484366,-24.4688,-25.3047)">
        <path d="M1026.81,628.215C1026.83,642.341 1027.28,656.486 1026.71,670.589C1026.06,686.484 1014.35,697.758 999.834,697.547C985.299,697.335 973.716,685.908 973.464,670.019C973.024,642.316 972.954,614.592 973.546,586.895C973.896,570.536 985.156,560.193 1000.43,560.347C1015.8,560.501 1026.14,570.839 1026.69,587.468C1027.14,601.037 1026.79,614.631 1026.81,628.215Z" style="fill:white;fill-rule:nonzero;"/>
    </g>
    <g>
        <g transform="matrix(0.0484366,0,0,0.0484366,-24.4688,-25.3047)">
            <path d="M804.07,1252.75L804.07,1314.65C804.07,1328.45 792.885,1339.63 779.087,1339.63L716.245,1339.63C702.447,1339.63 691.262,1328.45 691.262,1314.65L691.262,1252.75C691.262,1238.96 702.447,1227.77 716.245,1227.77L779.087,1227.77C792.885,1227.77 804.07,1238.96 804.07,1252.75Z" style="fill:white;fill-rule:nonzero;"/>
        </g>
        <g transform="matrix(0.0484366,0,0,0.0484366,-24.4688,-25.3047)">
            <path d="M972.792,1252.77L972.792,1314.69C972.792,1328.48 961.607,1339.67 947.809,1339.67L884.932,1339.67C871.135,1339.67 859.949,1328.48 859.949,1314.69L859.949,1252.77C859.949,1238.97 871.135,1227.78 884.932,1227.78L947.809,1227.78C961.607,1227.78 972.792,1238.97 972.792,1252.77Z" style="fill:white;fill-rule:nonzero;"/>
        </g>
        <g transform="matrix(0.0484366,0,0,0.0484366,-24.4688,-25.3047)">
            <path d="M1140.28,1253.57L1140.28,1315.23C1140.28,1329.03 1129.09,1340.21 1115.3,1340.21L1053.02,1340.21C1039.22,1340.21 1028.04,1329.03 1028.04,1315.23L1028.04,1253.57C1028.04,1239.77 1039.22,1228.59 1053.02,1228.59L1115.3,1228.59C1129.09,1228.59 1140.28,1239.77 1140.28,1253.57Z" style="fill:white;fill-rule:nonzero;"/>
        </g>
        <g transform="matrix(0.0484366,0,0,0.0484366,-24.4688,-25.3047)">
            <path d="M1140.93,921.595L1140.93,984.286C1140.93,998.084 1129.75,1009.27 1115.95,1009.27L1052.29,1009.27C1038.49,1009.27 1027.31,998.084 1027.31,984.286L1027.31,921.595C1027.31,907.797 1038.49,896.612 1052.29,896.612L1115.95,896.612C1129.75,896.612 1140.93,907.797 1140.93,921.595Z" style="fill:white;fill-rule:nonzero;"/>
        </g>
        <g transform="matrix(0.0484366,0,0,0.0484366,-24.4688,-25.3047)">
            <path d="M947.321,1009.53L884.574,1009.53C870.776,1009.53 859.591,998.347 859.591,984.549L859.591,921.332C859.591,907.534 870.776,896.349 884.574,896.349L947.321,896.349C961.119,896.349 972.304,907.534 972.304,921.332L972.304,984.549C972.304,998.347 961.119,1009.53 947.321,1009.53Z" style="fill:white;fill-rule:nonzero;"/>
        </g>
        <g transform="matrix(0.0484366,0,0,0.0484366,-24.4688,-25.3047)">
            <path d="M1284.08,1009.33L1221.27,1009.33C1207.48,1009.33 1196.29,998.142 1196.29,984.344L1196.29,921.537C1196.29,907.739 1207.48,896.554 1221.27,896.554L1284.08,896.554C1297.88,896.554 1309.06,907.739 1309.06,921.537L1309.06,984.344C1309.06,998.142 1297.88,1009.33 1284.08,1009.33Z" style="fill:white;fill-rule:nonzero;"/>
        </g>
        <g transform="matrix(0.0484366,0,0,0.0484366,-24.4688,-25.3047)">
            <path d="M885.187,1062L947.46,1062C961.258,1062 972.443,1073.19 972.443,1086.98L972.443,1150.44C972.443,1164.23 961.258,1175.42 947.46,1175.42L885.187,1175.42C871.389,1175.42 860.204,1164.23 860.204,1150.44L860.204,1086.98C860.204,1073.19 871.389,1062 885.187,1062Z" style="fill:white;fill-rule:nonzero;"/>
        </g>
        <g transform="matrix(0.0484366,0,0,0.0484366,-24.4688,-25.3047)">
            <path d="M716.529,1062L778.803,1062C792.6,1062 803.785,1073.19 803.785,1086.98L803.785,1150.44C803.785,1164.23 792.6,1175.42 778.803,1175.42L716.529,1175.42C702.731,1175.42 691.546,1164.23 691.546,1150.44L691.546,1086.98C691.546,1073.19 702.731,1062 716.529,1062Z" style="fill:white;fill-rule:nonzero;"/>
        </g>
        <g transform="matrix(0.0484366,0,0,0.0484366,-24.4688,-25.3047)">
            <path d="M716.529,896.232L778.803,896.232C792.6,896.232 803.785,907.417 803.785,921.215L803.785,984.667C803.785,998.464 792.6,1009.65 778.803,1009.65L716.529,1009.65C702.731,1009.65 691.546,998.464 691.546,984.667L691.546,921.215C691.546,907.417 702.731,896.232 716.529,896.232Z" style="fill:white;fill-rule:nonzero;"/>
        </g>
        <g transform="matrix(0.0484366,0,0,0.0484366,-24.4688,-25.3047)">
            <path d="M1052.72,1062.16L1115.33,1062.16C1129.13,1062.16 1140.31,1073.35 1140.31,1087.14L1140.31,1150.27C1140.31,1164.07 1129.13,1175.26 1115.33,1175.26L1052.72,1175.26C1038.92,1175.26 1027.74,1164.07 1027.74,1150.27L1027.74,1087.14C1027.74,1073.35 1038.92,1062.16 1052.72,1062.16Z" style="fill:white;fill-rule:nonzero;"/>
        </g>
        <g transform="matrix(0.0484366,0,0,0.0484366,-24.4688,-25.3047)">
            <path d="M1309.81,1087.57L1309.81,1149.85C1309.81,1163.65 1298.62,1174.83 1284.82,1174.83L1221.68,1174.83C1207.88,1174.83 1196.7,1163.65 1196.7,1149.85L1196.7,1087.57C1196.7,1073.77 1207.88,1062.59 1221.68,1062.59L1284.82,1062.59C1298.62,1062.59 1309.81,1073.77 1309.81,1087.57Z" style="fill:white;fill-rule:nonzero;"/>
        </g>
    </g>
</svg>
