<?xml version="1.0" encoding="UTF-8" standalone="no"?>
<!DOCTYPE svg PUBLIC "-//W3C//DTD SVG 1.1//EN" "http://www.w3.org/Graphics/SVG/1.1/DTD/svg11.dtd">
<svg width="100%" height="100%" viewBox="0 0 48 48" version="1.1" xmlns="http://www.w3.org/2000/svg" xmlns:xlink="http://www.w3.org/1999/xlink" xml:space="preserve" xmlns:serif="http://www.serif.com/" style="fill-rule:evenodd;clip-rule:evenodd;stroke-linejoin:round;stroke-miterlimit:2;">
    <g transform="matrix(0.0653559,0,0,0.0653559,-222.682,-14.2436)">
        <path d="M4094.1,737.586L4094.1,760.559L4065.84,760.182L3508.38,752.398C3495.88,752.223 3485.64,763.496 3485.64,777.455L3485.64,835.025C3485.64,848.834 3495.65,860.031 3508.02,860.082L3924.58,861.438L3924.58,861.89L4065.84,861.89L4065.84,805.374L4094.1,861.99L4094.1,893.147L3498.84,893.147C3472.68,893.147 3451.49,869.497 3451.49,840.298L3451.49,759.554C3451.49,747.541 3455.15,735.949 3461.79,726.643C3462.92,725.058 3464.14,723.539 3465.44,722.095L3487.27,697.851C3490.6,707.006 3498.63,713.47 3508.02,713.508L3924.58,714.864L3924.58,715.315L4065.84,715.315L4065.84,707.86L4094.1,737.586ZM3571.28,606.703C3577.91,602.35 3585.51,600 3593.33,600L3963.3,600L3975.03,612.339L3571.28,606.703Z" style="fill:white;fill-rule:nonzero;"/>
    </g>
    <g transform="matrix(0.0653559,0,0,0.0653559,-222.682,-14.2436)">
        <path d="M4065.84,561.286L4094.1,591.012L4094.1,613.984L4065.84,613.607L3508.38,605.825C3495.88,605.649 3485.64,616.922 3485.64,630.882L3485.64,688.451C3485.64,702.26 3495.65,713.458 3508.02,713.508L3924.58,714.864L3924.58,715.315L4065.84,715.315L4065.84,658.8L4094.1,715.416L4094.1,746.574L3498.84,746.574C3472.68,746.574 3451.49,722.923 3451.49,693.724L3451.49,612.98C3451.49,598.92 3456.5,585.438 3465.44,575.521L3487.27,551.277C3490.6,560.432 3498.63,566.896 3508.02,566.934L3924.58,568.29L4065.84,568.742L4065.84,561.286ZM3571.28,460.129C3577.91,455.777 3585.51,453.426 3593.33,453.426L3963.3,453.426L3975.03,465.766L3571.28,460.129Z" style="fill:white;fill-rule:nonzero;"/>
    </g>
    <g transform="matrix(0.0653559,0,0,0.0653559,-222.682,-14.2436)">
        <path d="M3485.64,484.308L3485.64,541.877C3485.64,555.687 3495.65,566.884 3508.02,566.934L3924.58,568.29L3924.58,568.742L4065.84,568.742L4065.84,512.227L4094.1,568.842L4094.1,600L3498.84,600C3472.68,600 3451.49,576.35 3451.49,547.15L3451.49,466.406C3451.49,452.347 3456.5,438.864 3465.44,428.947L3562.69,320.962C3570.83,311.924 3581.84,306.853 3593.33,306.853L3963.3,306.853L4094.1,444.438L4094.1,467.411L4065.84,467.034L3508.38,459.251C3495.88,459.075 3485.64,470.348 3485.64,484.308Z" style="fill:white;fill-rule:nonzero;"/>
    </g>
</svg>
