<?xml version="1.0" encoding="UTF-8" standalone="no"?>
<!DOCTYPE svg PUBLIC "-//W3C//DTD SVG 1.1//EN" "http://www.w3.org/Graphics/SVG/1.1/DTD/svg11.dtd">
<svg width="100%" height="100%" viewBox="0 0 48 48" version="1.1" xmlns="http://www.w3.org/2000/svg" xmlns:xlink="http://www.w3.org/1999/xlink" xml:space="preserve" xmlns:serif="http://www.serif.com/" style="fill-rule:evenodd;clip-rule:evenodd;stroke-linejoin:round;stroke-miterlimit:2;">
    <g>
        <g transform="matrix(0.0316039,0,0,0.0316039,-5.68066,2.46146)">
            <path d="M398.691,838.988L1479.15,838.988C1449.94,566.722 1218.81,354.017 938.937,354.017C659.065,354.017 427.88,566.722 398.691,838.988ZM1540.64,955.746L337.179,955.746C304.943,955.746 278.799,929.605 278.799,897.368C278.799,533.387 574.927,237.259 938.908,237.259C1302.89,237.259 1599.02,533.387 1599.02,897.368C1599.02,929.605 1572.88,955.746 1540.64,955.746Z" style="fill:white;"/>
        </g>
        <g transform="matrix(0.0316039,0,0,0.0316039,-5.68066,2.46146)">
            <path d="M938.908,520.974C906.671,520.974 880.53,494.833 880.53,462.593L880.53,295.637C880.53,263.4 906.671,237.259 938.908,237.259C971.148,237.259 997.289,263.4 997.289,295.637L997.289,462.593C997.289,494.833 971.174,520.974 938.908,520.974Z" style="fill:white;"/>
        </g>
        <g transform="matrix(0.0316039,0,0,0.0316039,-5.68066,2.46146)">
            <path d="M1246.35,648.304C1231.41,648.304 1216.47,642.622 1205.08,631.198C1182.29,608.407 1182.29,571.446 1205.08,548.655L1323.13,430.604C1345.92,407.783 1382.88,407.813 1405.67,430.604C1428.46,453.396 1428.46,490.357 1405.67,513.148L1287.62,631.198C1276.23,642.622 1261.29,648.304 1246.35,648.304Z" style="fill:white;"/>
        </g>
        <g transform="matrix(0.0316039,0,0,0.0316039,-5.68066,2.46146)">
            <path d="M631.495,648.304C616.556,648.304 601.619,642.622 590.223,631.198L472.172,513.148C449.381,490.357 449.381,453.396 472.172,430.604C494.964,407.813 531.925,407.813 554.717,430.604L672.768,548.655C695.559,571.446 695.559,608.407 672.768,631.198C661.372,642.595 646.432,648.304 631.495,648.304Z" style="fill:white;"/>
        </g>
        <g transform="matrix(0.0316039,0,0,0.0316039,-5.68066,2.46146)">
            <path d="M854.277,955.746C839.338,955.746 824.401,950.062 813.005,938.64C790.214,915.849 790.214,878.888 813.005,856.096L982.296,686.805C1005.09,664.013 1042.05,664.013 1064.84,686.805C1087.63,709.597 1087.63,746.558 1064.84,769.35L895.549,938.64C884.153,950.036 869.214,955.746 854.277,955.746Z" style="fill:white;"/>
        </g>
    </g>
</svg>
