<?xml version="1.0" encoding="UTF-8" standalone="no"?>
<!DOCTYPE svg PUBLIC "-//W3C//DTD SVG 1.1//EN" "http://www.w3.org/Graphics/SVG/1.1/DTD/svg11.dtd">
<svg width="100%" height="100%" viewBox="0 0 48 48" version="1.1" xmlns="http://www.w3.org/2000/svg" xmlns:xlink="http://www.w3.org/1999/xlink" xml:space="preserve" xmlns:serif="http://www.serif.com/" style="fill-rule:evenodd;clip-rule:evenodd;stroke-linejoin:round;stroke-miterlimit:2;">
    <g>
        <g transform="matrix(0.0461941,0,0,0.0461941,-22.1898,-21.5283)">
            <path d="M1409.19,1115.1C1409.19,1156.18 1375.77,1189.59 1334.7,1189.59L987.65,1189.59C987.004,1189.59 986.361,1189.63 985.729,1189.69L985.629,1189.69C984.991,1189.76 984.362,1189.85 983.74,1189.97C983.699,1189.98 983.659,1189.98 983.615,1189.99C982.996,1190.11 982.388,1190.26 981.789,1190.44C981.737,1190.45 981.684,1190.47 981.632,1190.48C981.041,1190.66 980.461,1190.86 979.895,1191.09C979.825,1191.12 979.757,1191.15 979.686,1191.17C979.131,1191.4 978.587,1191.66 978.056,1191.93C977.975,1191.97 977.894,1192.01 977.811,1192.06C977.279,1192.34 976.765,1192.65 976.262,1192.97C976.188,1193.02 976.111,1193.07 976.037,1193.12C975.51,1193.47 975.002,1193.85 974.509,1194.24C974.464,1194.28 974.419,1194.31 974.377,1194.35C973.836,1194.79 973.314,1195.26 972.823,1195.75C972.821,1195.76 972.82,1195.76 972.818,1195.76L789.27,1379.56L789.27,1210.6C789.27,1199 779.863,1189.59 768.261,1189.59L665.3,1189.59C624.228,1189.59 590.812,1156.18 590.812,1115.1L590.812,635.399C590.812,594.326 624.228,560.911 665.3,560.911L1334.7,560.911C1375.77,560.911 1409.19,594.326 1409.19,635.399L1409.19,1115.1ZM1334.7,518.889L665.3,518.889C601.056,518.889 548.79,571.155 548.79,635.399L548.79,1115.1C548.79,1179.35 601.056,1231.61 665.3,1231.61L747.25,1231.61L747.25,1481.11L996.398,1231.61L1334.7,1231.61C1398.94,1231.61 1451.21,1179.35 1451.21,1115.1L1451.21,635.399C1451.21,571.155 1398.94,518.889 1334.7,518.889Z" style="fill:white;fill-rule:nonzero;"/>
        </g>
        <g transform="matrix(0.0461941,0,0,0.0461941,-22.1898,-21.5283)">
            <path d="M776.25,816.315C743.702,816.315 717.313,842.702 717.313,875.252C717.313,907.802 743.702,934.188 776.25,934.188C808.797,934.188 835.186,907.802 835.186,875.252C835.186,842.702 808.797,816.315 776.25,816.315Z" style="fill:white;fill-rule:nonzero;"/>
        </g>
        <g transform="matrix(0.0461941,0,0,0.0461941,-22.1898,-21.5283)">
            <path d="M1223.75,816.315C1191.2,816.315 1164.81,842.702 1164.81,875.252C1164.81,907.802 1191.2,934.188 1223.75,934.188C1256.3,934.188 1282.69,907.802 1282.69,875.252C1282.69,842.702 1256.3,816.315 1223.75,816.315Z" style="fill:white;fill-rule:nonzero;"/>
        </g>
        <g transform="matrix(0.0461941,0,0,0.0461941,-22.1898,-21.5283)">
            <path d="M1000,816.315C968.268,816.315 942.545,842.04 942.545,873.771C942.545,905.502 968.268,931.227 1000,931.227C1031.73,931.227 1057.46,905.502 1057.46,873.771C1057.46,842.04 1031.73,816.315 1000,816.315Z" style="fill:white;fill-rule:nonzero;"/>
        </g>
    </g>
</svg>
