<?xml version="1.0" encoding="UTF-8" standalone="no"?>
<!DOCTYPE svg PUBLIC "-//W3C//DTD SVG 1.1//EN" "http://www.w3.org/Graphics/SVG/1.1/DTD/svg11.dtd">
<svg width="100%" height="100%" viewBox="0 0 48 48" version="1.1" xmlns="http://www.w3.org/2000/svg" xmlns:xlink="http://www.w3.org/1999/xlink" xml:space="preserve" xmlns:serif="http://www.serif.com/" style="fill-rule:evenodd;clip-rule:evenodd;stroke-linejoin:round;stroke-miterlimit:2;">
    <g>
        <g transform="matrix(0.0400242,0,0,0.0400242,-26.067,-17.5844)">
            <path d="M775,737.5L775,1362.5C775,1376.28 786.216,1387.5 800,1387.5L1700,1387.5C1713.78,1387.5 1725,1376.28 1725,1362.5L1725,762.5C1725,748.716 1713.78,737.5 1700,737.5L775,737.5ZM1700,1437.5L800,1437.5C758.645,1437.5 725,1403.86 725,1362.5L725,712.5C725,698.694 736.194,687.5 750,687.5L1700,687.5C1741.36,687.5 1775,721.145 1775,762.5L1775,1362.5C1775,1403.86 1741.36,1437.5 1700,1437.5Z" style="fill:white;fill-rule:nonzero;"/>
        </g>
        <g transform="matrix(0.0400242,0,0,0.0400242,-26.067,-17.5844)">
            <path d="M775,687.5L1075,687.5L1075,637.5C1075,623.716 1063.78,612.5 1050,612.5L800,612.5C786.216,612.5 775,623.716 775,637.5L775,687.5ZM1100,737.5L750,737.5C736.194,737.5 725,726.306 725,712.5L725,637.5C725,596.145 758.645,562.5 800,562.5L1050,562.5C1091.35,562.5 1125,596.145 1125,637.5L1125,712.5C1125,726.306 1113.81,737.5 1100,737.5Z" style="fill:white;fill-rule:nonzero;"/>
        </g>
    </g>
</svg>
