<?xml version="1.0" encoding="UTF-8" standalone="no"?>
<!DOCTYPE svg PUBLIC "-//W3C//DTD SVG 1.1//EN" "http://www.w3.org/Graphics/SVG/1.1/DTD/svg11.dtd">
<svg width="100%" height="100%" viewBox="0 0 48 48" version="1.1" xmlns="http://www.w3.org/2000/svg" xmlns:xlink="http://www.w3.org/1999/xlink" xml:space="preserve" xmlns:serif="http://www.serif.com/" style="fill-rule:evenodd;clip-rule:evenodd;stroke-linejoin:round;stroke-miterlimit:2;">
    <g transform="matrix(0.0428669,0,0,0.0428669,-11.9865,-72.1328)">
        <path d="M696.257,1993.16C696.257,2068.86 634.897,2130.22 559.205,2130.22C483.513,2130.22 422.153,2068.86 422.153,1993.16C422.153,1917.47 483.513,1856.11 559.205,1856.11C634.897,1856.11 696.257,1917.47 696.257,1993.16Z" style="fill:white;fill-rule:nonzero;"/>
    </g>
    <g transform="matrix(0.0428669,0,0,0.0428669,-11.9865,-72.1328)">
        <path d="M604.885,2386.9C604.885,2311.1 641.941,2240.03 704.033,2196.49C686.893,2170.95 676.876,2140.24 676.876,2107.24C676.876,2105.51 676.952,2103.79 677.007,2102.07C647.691,2133.86 605.699,2153.74 559.205,2153.74C512.078,2153.74 469.657,2133.39 440.24,2100.97C385.817,2138.68 350.162,2201.58 350.162,2272.83L350.162,2434.8L604.885,2434.8L604.885,2386.9Z" style="fill:white;fill-rule:nonzero;"/>
    </g>
    <g transform="matrix(0.0428669,0,0,0.0428669,-11.9865,-72.1328)">
        <path d="M1252.77,1993.16C1252.77,2068.86 1191.41,2130.22 1115.72,2130.22C1040.03,2130.22 978.668,2068.86 978.668,1993.16C978.668,1917.47 1040.03,1856.11 1115.72,1856.11C1191.41,1856.11 1252.77,1917.47 1252.77,1993.16Z" style="fill:white;fill-rule:nonzero;"/>
    </g>
    <g transform="matrix(0.0428669,0,0,0.0428669,-11.9865,-72.1328)">
        <path d="M1234.63,2100.91C1205.27,2133.39 1162.79,2153.74 1115.72,2153.74C1069.2,2153.74 1027.29,2133.88 997.921,2102.19C997.974,2103.87 998.05,2105.55 998.05,2107.24C998.05,2140.24 988.035,2170.94 970.901,2196.47C1032.99,2240.11 1070.04,2311.18 1070.04,2386.9L1070.04,2434.8L1324.76,2434.8L1324.76,2272.83C1324.76,2201.58 1289.05,2138.68 1234.63,2100.91Z" style="fill:white;fill-rule:nonzero;"/>
    </g>
    <g transform="matrix(0.0428669,0,0,0.0428669,-11.9865,-72.1328)">
        <path d="M1046.51,2386.9L1046.51,2548.88L628.42,2548.88L628.42,2386.9C628.42,2315.65 664.074,2252.76 718.497,2215.04C747.915,2247.46 790.336,2267.82 837.463,2267.82C884.531,2267.82 927.01,2247.46 956.37,2214.99C1010.79,2252.76 1046.51,2315.65 1046.51,2386.9Z" style="fill:white;fill-rule:nonzero;"/>
    </g>
    <g transform="matrix(0.0428669,0,0,0.0428669,-11.9865,-72.1328)">
        <path d="M974.515,2107.24C974.515,2182.93 913.155,2244.29 837.463,2244.29C761.771,2244.29 700.41,2182.93 700.41,2107.24C700.41,2031.55 761.771,1970.19 837.463,1970.19C913.155,1970.19 974.515,2031.55 974.515,2107.24Z" style="fill:white;fill-rule:nonzero;"/>
    </g>
</svg>
