<?xml version="1.0" encoding="UTF-8" standalone="no"?>
<!DOCTYPE svg PUBLIC "-//W3C//DTD SVG 1.1//EN" "http://www.w3.org/Graphics/SVG/1.1/DTD/svg11.dtd">
<svg width="100%" height="100%" viewBox="0 0 48 48" version="1.1" xmlns="http://www.w3.org/2000/svg" xmlns:xlink="http://www.w3.org/1999/xlink" xml:space="preserve" xmlns:serif="http://www.serif.com/" style="fill-rule:evenodd;clip-rule:evenodd;stroke-linejoin:round;stroke-miterlimit:2;">
    <g transform="matrix(0.0213736,0,0,0.0213736,-19.685,-18.5875)">
        <path d="M2231.95,1202.82C2231.95,1330.92 2128.1,1434.76 2000,1434.76C1871.9,1434.76 1768.05,1330.92 1768.05,1202.82C1768.05,1074.72 1871.9,970.872 2000,970.872C2128.1,970.872 2231.95,1074.72 2231.95,1202.82Z" style="fill:white;fill-rule:nonzero;"/>
    </g>
    <g transform="matrix(0.0213736,0,0,0.0213736,-19.685,-18.5875)">
        <path d="M2231.95,2000C2231.95,2128.1 2128.1,2231.95 2000,2231.95C1871.9,2231.95 1768.05,2128.1 1768.05,2000C1768.05,1871.9 1871.9,1768.05 2000,1768.05C2128.1,1768.05 2231.95,1871.9 2231.95,2000Z" style="fill:white;fill-rule:nonzero;"/>
    </g>
    <g transform="matrix(0.0213736,0,0,0.0213736,-19.685,-18.5875)">
        <path d="M2231.95,2797.18C2231.95,2925.28 2128.1,3029.13 2000,3029.13C1871.9,3029.13 1768.05,2925.28 1768.05,2797.18C1768.05,2669.08 1871.9,2565.24 2000,2565.24C2128.1,2565.24 2231.95,2669.08 2231.95,2797.18Z" style="fill:white;fill-rule:nonzero;"/>
    </g>
</svg>
