<?xml version="1.0" encoding="UTF-8" standalone="no"?>
<!DOCTYPE svg PUBLIC "-//W3C//DTD SVG 1.1//EN" "http://www.w3.org/Graphics/SVG/1.1/DTD/svg11.dtd">
<svg width="100%" height="100%" viewBox="0 0 48 48" version="1.1" xmlns="http://www.w3.org/2000/svg" xmlns:xlink="http://www.w3.org/1999/xlink" xml:space="preserve" xmlns:serif="http://www.serif.com/" style="fill-rule:evenodd;clip-rule:evenodd;stroke-linejoin:round;stroke-miterlimit:2;">
    <g transform="matrix(0.0167351,0,0,0.0167351,-18.0378,-9.35099)">
        <path d="M2367.32,2561.79L2654.47,2561.79L2654.47,2851.99L2367.32,2851.99L2367.32,2561.79ZM3038.4,1653.59C3038.51,1914.46 2830.19,2013.72 2754.26,2062.4C2680.74,2111.67 2652.97,2168.2 2651.35,2227.76L2651.35,2449.28L2367.32,2449.28L2367.34,2121.58C2368.95,2023.18 2400.87,1956.64 2495.3,1896.95L2654.48,1787.65C2756.17,1717.65 2755.6,1576.62 2691.93,1512.9C2635.6,1459.32 2541.28,1427.92 2442.3,1447.5C2256.31,1485.35 2241.46,1621.54 2242.49,1750.19L2242.49,1806.36L1958.63,1806.36C1957.71,1564.91 1984.38,1455.08 2111.59,1316.41C2252.52,1161.39 2451.86,1136.32 2635.81,1172.91C2819.77,1212.51 3038.52,1392.02 3038.4,1653.59ZM2498.39,2980.04C1963.99,2979.57 1529.93,2541.15 1530.98,2000.1C1529.95,1459.35 1963.99,1020.97 2498.39,1019.87C3035.01,1020.95 3469.16,1459.33 3469.07,2000.1C3469.12,2541.17 3035.02,2979.61 2498.39,2980.04ZM2498.39,726.619C1803.59,727.426 1239.41,1297.32 1240.71,2000.1C1239.38,2703.21 1803.59,3272.9 2498.39,3273.38C3195.41,3272.86 3759.77,2703.16 3759.29,2000.1C3759.7,1297.32 3195.31,727.435 2498.39,726.619Z" style="fill:white;fill-rule:nonzero;"/>
    </g>
</svg>
