<?xml version="1.0" encoding="UTF-8" standalone="no"?>
<!DOCTYPE svg PUBLIC "-//W3C//DTD SVG 1.1//EN" "http://www.w3.org/Graphics/SVG/1.1/DTD/svg11.dtd">
<svg width="100%" height="100%" viewBox="0 0 48 48" version="1.1" xmlns="http://www.w3.org/2000/svg" xmlns:xlink="http://www.w3.org/1999/xlink" xml:space="preserve" xmlns:serif="http://www.serif.com/" style="fill-rule:evenodd;clip-rule:evenodd;stroke-linejoin:round;stroke-miterlimit:2;">
    <g transform="matrix(0.0146264,0,0,0.0146264,-3.42498,-3.08422)">
        <path d="M1874.98,455.082C1092.49,455.082 455.063,1092.51 455.063,1875C455.063,2657.49 1092.49,3294.92 1874.98,3294.92C2657.47,3294.92 3294.94,2657.49 3294.94,1875C3294.94,1092.51 2657.47,455.082 1874.98,455.082ZM1874.98,745.996C2500.25,745.996 3004.02,1249.73 3004.02,1875C3004.02,2500.27 2500.25,3004 1874.98,3004C1249.71,3004 745.977,2500.27 745.977,1875C745.977,1249.73 1249.71,745.996 1874.98,745.996ZM1874.98,837.477C1810.08,837.477 1757.86,889.699 1757.86,954.602L1757.86,1939.39C1760.89,1984.96 1785.63,2030.24 1824.26,2047.54L2641.44,2399.67C2695.29,2422.88 2759.32,2393.59 2785,2333.99C2810.69,2274.39 2788.02,2207.72 2734.17,2184.52L1992.14,1864.73L1992.14,954.602C1992.14,889.699 1939.88,837.477 1874.98,837.477Z" style="fill:white;fill-rule:nonzero;"/>
    </g>
</svg>
