<?xml version="1.0" encoding="UTF-8" standalone="no"?>
<!DOCTYPE svg PUBLIC "-//W3C//DTD SVG 1.1//EN" "http://www.w3.org/Graphics/SVG/1.1/DTD/svg11.dtd">
<svg width="100%" height="100%" viewBox="0 0 48 48" version="1.1" xmlns="http://www.w3.org/2000/svg" xmlns:xlink="http://www.w3.org/1999/xlink" xml:space="preserve" xmlns:serif="http://www.serif.com/" style="fill-rule:evenodd;clip-rule:evenodd;stroke-linecap:round;stroke-linejoin:round;stroke-miterlimit:2;">
    <g transform="matrix(0.016167,0,0,0.016167,-8.29202,-10.0615)">
        <path d="M2450,2000C2450,2248.53 2248.53,2450 2000,2450C1751.47,2450 1550,2248.53 1550,2000L750,2000L750,2900L3250,2900L3250,2000L2450,2000Z" style="fill:none;stroke:white;stroke-width:128.86px;"/>
    </g>
    <g transform="matrix(0.016167,0,0,0.016167,-8.29202,-10.0615)">
        <path d="M3250,2000L2750,1100L1250,1100L750,2000" style="fill:none;stroke:white;stroke-width:128.86px;"/>
    </g>
    <g transform="matrix(0.016167,0,0,0.016167,-8.29202,-10.0615)">
        <path d="M1123.91,2000L1123.91,1775L2876.09,1775L2876.09,2000" style="fill:none;stroke:white;stroke-width:128.86px;"/>
    </g>
    <g transform="matrix(0.016167,0,0,0.016167,-8.29202,-10.0615)">
        <path d="M1248.91,1775L1248.91,1550L2751.09,1550L2751.09,1775" style="fill:none;stroke:white;stroke-width:128.86px;"/>
    </g>
    <g transform="matrix(0.016167,0,0,0.016167,-8.29202,-10.0615)">
        <path d="M1373.91,1550L1373.91,1325L2626.09,1325L2626.09,1550" style="fill:none;stroke:white;stroke-width:128.86px;"/>
    </g>
</svg>
