<?xml version="1.0" encoding="UTF-8" standalone="no"?>
<!DOCTYPE svg PUBLIC "-//W3C//DTD SVG 1.1//EN" "http://www.w3.org/Graphics/SVG/1.1/DTD/svg11.dtd">
<svg width="100%" height="100%" viewBox="0 0 48 48" version="1.1" xmlns="http://www.w3.org/2000/svg" xmlns:xlink="http://www.w3.org/1999/xlink" xml:space="preserve" xmlns:serif="http://www.serif.com/" style="fill-rule:evenodd;clip-rule:evenodd;stroke-linejoin:round;stroke-miterlimit:2;">
    <g transform="matrix(0.0279676,0,0,0.0279676,-4.02952,-4.13823)">
        <path d="M1000,1808C937.151,1808 878.063,1783.52 833.622,1739.08C789.179,1694.64 764.704,1635.55 764.704,1572.7C764.704,1551.44 767.561,1530.33 773.195,1509.96C782.618,1475.9 817.872,1455.92 851.941,1465.34C886.008,1474.76 905.986,1510.02 896.563,1544.08C894.002,1553.34 892.704,1562.97 892.704,1572.7C892.704,1631.87 940.836,1680 1000,1680C1059.16,1680 1107.3,1631.87 1107.3,1572.7C1107.3,1562.97 1106,1553.34 1103.44,1544.08C1094.01,1510.02 1113.99,1474.76 1148.06,1465.34C1182.13,1455.92 1217.38,1475.9 1226.81,1509.96C1232.44,1530.34 1235.3,1551.45 1235.3,1572.7C1235.3,1635.55 1210.82,1694.64 1166.38,1739.08C1121.94,1783.52 1062.85,1808 1000,1808Z" style="fill:white;fill-rule:nonzero;"/>
    </g>
    <g transform="matrix(0.0279676,0,0,0.0279676,-4.02952,-4.13823)">
        <path d="M466.94,1437.43L1533.04,1437.43C1519.24,1407.7 1495.89,1382.73 1465.65,1366.89C1408.78,1337.11 1373.45,1279.04 1373.45,1215.34L1373.45,834.212C1373.45,642.5 1217.48,486.529 1025.77,486.529L974.232,486.529C782.52,486.529 626.549,642.5 626.549,834.212L626.549,1215.34C626.549,1246.43 618.104,1276.92 602.126,1303.51C585.966,1330.4 562.764,1352.19 535.029,1366.54C521.123,1373.73 508.432,1383.01 497.311,1394.14C484.548,1406.9 474.338,1421.54 466.94,1437.43ZM1611.13,1565.43L388.875,1565.43C353.528,1565.43 324.875,1536.77 324.875,1501.43C324.875,1426.7 353.97,1356.46 406.801,1303.63C427.25,1283.18 450.607,1266.09 476.228,1252.84C489.996,1245.72 498.549,1231.35 498.549,1215.34L498.549,834.212C498.549,770.023 511.135,707.721 535.957,649.036C559.919,592.384 594.208,541.519 637.874,497.854C681.539,454.188 732.404,419.898 789.056,395.937C847.741,371.115 910.044,358.529 974.232,358.529L1025.77,358.529C1089.96,358.529 1152.26,371.115 1210.94,395.937C1267.6,419.898 1318.46,454.188 1362.13,497.854C1405.79,541.519 1440.08,592.384 1464.04,649.036C1488.86,707.721 1501.45,770.023 1501.45,834.212L1501.45,1215.34C1501.45,1231.26 1510.49,1245.88 1525.03,1253.5C1569.54,1276.81 1607.05,1311.75 1633.49,1354.53C1660.73,1398.61 1675.13,1449.41 1675.13,1501.43C1675.13,1536.77 1646.47,1565.43 1611.13,1565.43Z" style="fill:white;fill-rule:nonzero;"/>
    </g>
    <g transform="matrix(0.0279676,0,0,0.0279676,-4.02952,-4.13823)">
        <path d="M1000,486.534C964.654,486.534 936,457.88 936,422.534L936,256C936,220.654 964.654,192 1000,192C1035.35,192 1064,220.654 1064,256L1064,422.534C1064,457.88 1035.35,486.534 1000,486.534Z" style="fill:white;fill-rule:nonzero;"/>
    </g>
</svg>
