<?xml version="1.0" encoding="UTF-8" standalone="no"?>
<!DOCTYPE svg PUBLIC "-//W3C//DTD SVG 1.1//EN" "http://www.w3.org/Graphics/SVG/1.1/DTD/svg11.dtd">
<svg width="100%" height="100%" viewBox="0 0 48 48" version="1.1" xmlns="http://www.w3.org/2000/svg" xmlns:xlink="http://www.w3.org/1999/xlink" xml:space="preserve" xmlns:serif="http://www.serif.com/" style="fill-rule:evenodd;clip-rule:evenodd;stroke-linejoin:round;stroke-miterlimit:2;">
    <g>
        <g transform="matrix(0.0297773,0,0,0.0297773,-5.91826,-6.20203)">
            <path d="M1000.01,300C613.404,300 300.003,613.399 300.003,999.998C300.003,1386.6 613.404,1700 1000.01,1700C1386.6,1700 1700,1386.6 1700,999.998C1700,613.399 1386.6,300 1000.01,300ZM1527.54,1355.63C1504.78,1389.32 1478.63,1421.01 1449.82,1449.82C1426.65,1472.99 1401.6,1494.45 1375.15,1513.8C1403.79,1456.57 1396,1391.55 1350.91,1335.97C1325.4,1304.55 1293.58,1280.9 1258.06,1262.47C1177.41,1220.61 1090.95,1203.14 998.987,1203.26C921.211,1203.05 844.601,1216.46 771.524,1248.18C721.689,1269.82 677.422,1298.91 643.612,1342.28C602.885,1394.53 596.493,1457.67 625.265,1514.11C598.659,1494.67 573.474,1473.12 550.179,1449.82C521.375,1421.01 495.229,1389.32 472.462,1355.63C449.489,1321.63 429.759,1285.27 413.822,1247.6C380.667,1169.21 363.856,1085.9 363.856,999.998C363.856,914.091 380.667,830.788 413.822,752.401C429.759,714.721 449.489,678.373 472.462,644.368C495.229,610.67 521.375,578.978 550.179,550.176C578.982,521.373 610.673,495.225 644.371,472.459C678.376,449.486 714.725,429.756 752.405,413.819C830.791,380.664 914.094,363.853 1000.01,363.853C1085.91,363.853 1169.22,380.664 1247.6,413.819C1285.28,429.756 1321.62,449.486 1355.64,472.459C1389.33,495.225 1421.02,521.373 1449.82,550.176C1478.63,578.978 1504.78,610.67 1527.54,644.368C1550.52,678.373 1570.25,714.721 1586.18,752.401C1619.34,830.788 1636.14,914.091 1636.14,999.998C1636.14,1085.9 1619.34,1169.21 1586.18,1247.6C1570.25,1285.27 1550.52,1321.63 1527.54,1355.63Z" style="fill:white;fill-rule:nonzero;"/>
        </g>
        <g transform="matrix(0.0297773,0,0,0.0297773,-5.91826,-6.20203)">
            <path d="M1006.05,681.605C874.404,678.894 764.712,783.429 761.479,916.001C758.243,1048.72 864.17,1157.7 999.38,1160.76C1128.39,1163.68 1238.9,1056.36 1240.75,924.266C1242.58,793.232 1138.66,684.337 1006.05,681.605Z" style="fill:white;fill-rule:nonzero;"/>
        </g>
    </g>
</svg>
