<?xml version="1.0" encoding="UTF-8" standalone="no"?>
<!DOCTYPE svg PUBLIC "-//W3C//DTD SVG 1.1//EN" "http://www.w3.org/Graphics/SVG/1.1/DTD/svg11.dtd">
<svg width="100%" height="100%" viewBox="0 0 48 48" version="1.1" xmlns="http://www.w3.org/2000/svg" xmlns:xlink="http://www.w3.org/1999/xlink" xml:space="preserve" xmlns:serif="http://www.serif.com/" style="fill-rule:evenodd;clip-rule:evenodd;stroke-linejoin:round;stroke-miterlimit:2;">
    <g transform="matrix(0.0266783,0,0,0.0266783,-11.8521,-7.94963)">
        <path d="M1159.19,1420.6C917.273,1452.97 694.936,1283.17 662.563,1041.25C630.12,799.396 799.999,576.988 1041.85,544.617C1283.77,512.242 1506.1,682.047 1538.55,923.971C1570.92,1165.82 1401.11,1388.23 1159.19,1420.6ZM2093.45,1638.79L1573.13,1241.41C1700.01,1010.44 1641.62,717.711 1427.64,554.288C1313.24,466.908 1171.67,429.296 1028.97,448.468C734.418,487.9 526.867,759.623 566.306,1054.17C602.739,1326.32 835.159,1521.64 1099.26,1521.64C1234.39,1521.64 1366.89,1472.23 1470.38,1374.43L1991.43,1772.4C2028.28,1800.58 2081.1,1793.5 2109.21,1756.64C2137.17,1720.27 2130.74,1667.3 2093.45,1638.79Z" style="fill:white;fill-rule:nonzero;"/>
    </g>
</svg>
